<svg xmlns="http://www.w3.org/2000/svg" viewBox="0 0 974.184 896.3486" width="32" height="32">
  <rect width="974.184" height="896.3486" fill="#000"/>
  <path d="M512.337,118.4643c-18.88,23.06-31.76,54.45-44.21,84.81-3.12,7.59-6.34,15.44-9.58,22.96-5.44,13.03-10.93,25.31-16.23,37.19-6.1,13.66-11.98,26.84-17.66,40.75,7.22-1.9,14.82-4.02,22.63-6.31,9.42-22.11,19.23-42.86,29-66.25,25.62-59.44,47.21-132.96,114.17-149.5-.52,0-1.04-.02-1.55-.02-31.93,0-56.27,11.56-76.58,36.37h.01Z" fill="#fff"/>
  <path d="M796.217,70.7443c9.77,23.28,13.09,47.71,9.86,72.61-2.9,22.41-11.02,44.73-24.13,66.33-20.93,34.49-53.58,65.23-91.02,86.06,5.05.91,10,1.99,14.86,3.23,75.76-37.9,144.29-125.54,108.15-211.66-6.67-13.78-16.83-25.22-28.65-34.54,4.04,5.36,7.63,11.1,10.61,17.26.11.23.22.47.32.71h0Z" fill="#fff"/>
  <path d="M416.187,410.2643c-12.01,3.69-36.63,11.24-42.26,16.26-9.83,26.42-23,55.96-35.75,84.53-15.79,35.41-32.13,72.02-41.41,101.34-12.41,39.21-6.94,49.4-4.97,51.59,3.91,4.32,9.27,6.73,14.52,8.06-8.77-45.39,54.89-157.86,85.46-240.47,4.38-13.43,56.83-24.17,75.66-32.32,21.33-6.99,50.15-15.34,79.39-20.06-28.83,1.63-64.92,9.34-105.32,22.55-6.46,2.72-15.23,5.41-25.33,8.51l.01.01Z" fill="#fff"/>
  <path d="M376.157,801.1143c248.05-93.36,376.27-182,421.22-332.4,31.84-106.54-59.77-167.67-160.34-161.72-.08,0-1.13-.24-1.97-.7-.04-.13-.06-.31.07-.39,11.89-5.21,24.67-10.42,35.63-15.96,77.33-36.76,148.96-125.98,112.18-213.63-19.29-39.84-67.7-60.14-101.28-66.16-119.76-21.48-236.33,32.08-349.15,60.4-79.63,26.22-218.52,25.55-257.73-22.93,15.21,97.69,89.39,151.21,194.21,167.21-39.23-63.44,25.96-75.47,57.32-72.8-11.17,17.65-17.98,39.17-26.45,57.22-43.91,103.16-85.03,197.7-128.47,298.71-16.62,51.39-67.18,121.47-49.7,164.61,25.52,58.21,141.96,57.53,215.2,23.61-18.86,3.9-42.36,2.29-55.79-12.56-29.2-32.45,45.69-161.21,79.68-253.04,4.38-13.43,56.83-24.17,75.66-32.32,66.47-21.8,205.76-56.8,203.76,46.3-1.3,67.44-50.9,123.89-101.8,165.42-165.11,125.65-323.56,124.71-473.41,160.4,68.5-10.36,176.21,73.22,165.27,128.05,13.6-41.18,121.25-77.88,145.89-87.32h0ZM587.597,251.8943c-39.1,32.38-136.28,61.79-186.22,72.77,13.69-38.23,28.85-67.97,43.92-104.05,30.49-70.74,55.26-161.43,157.59-152.28,103.03,13.9,37.55,139.8-15.29,183.56Z" fill="#fff"/>
  <path d="M793.117,352.7043c.46.6.93,1.2,1.38,1.8,24.29,32.61,30.05,73.53,16.67,118.33-23.27,77.88-67.6,139.81-139.49,194.9-65.67,50.33-157.97,96.99-290.46,146.86-2,.77-4.65,1.75-7.79,2.92-16.65,6.18-47.65,17.69-75.6,32.1-18.47,9.52-30.7,17.76-38.81,24.6,23.02-16.84,148.13-62.08,148.13-62.08,248.05-93.36,376.27-182,421.22-332.4,16.7-55.87-.57-99.24-35.25-127.01v-.0199Z" fill="#fff"/>
</svg>