<?xml version="1.0" encoding="UTF-8"?>
<svg id="Layer_1" xmlns="http://www.w3.org/2000/svg" width="13.5303in" height="12.4493in" version="1.1" viewBox="0 0 974.184 896.3486">
  <!-- Generator: Adobe Illustrator 30.0.0, SVG Export Plug-In . SVG Version: 2.1.1 Build 123)  -->
  <rect width="974.184" height="896.3486"/>
  <g id="Layer_11" data-name="Layer_1" display="none">
    <path d="M681.987,296.9843c-.19,0-.35-.15-.35-.35,0-.15.09-.28.23-.33,4.93-1.93,9.66-4.25,14.19-6.94,26.79-15.93,49.76-36.14,68.91-60.61,1.61-2.06,5.21-7.15,10.78-15.27,3.61-5.27,6.82-10.6,9.63-16.01,12.1-23.38,20.68-47.25,20.29-73.44-.24-15.98-2.11-30.77-8.36-45.28-6.34-14.71-14.15-27.28-25.22-38.35,1.89,1.46,3.05,2.44,3.8,3.15,5.32,5.04,11.28,11.33,17.87,18.88,13.8,15.8,25.83,34.85,29.43,55.85,6.51,38.03-4.04,74.76-25.87,106.4-17.66,25.59-39.91,46.02-66.74,61.28-8.63,4.91-16.25,7.71-26.13,11.28-2.06.75-4.06.99-6,.74-5.44-.69-10.93-1.03-16.46-1Z" fill="#d1d3d4"/>
    <path d="M561.937,86.4643c-.91.42-3.46,1.49-7.65,3.2-2.36.97-5.24,2.81-8.65,5.53-11.68,9.32-19.48,20.92-25.93,34.55-3.03,6.4-7.63,17.14-13.81,32.23-6.55,15.98-16.63,37.01-23.77,53.83-13.25,31.17-20.06,46.41-37.34,84.54-.56,1.25-1.41,1.99-2.54,2.24-7.26,1.61-13.97,2.86-20.12,3.73-.23.03-.44-.13-.47-.36,0-.07,0-.14.02-.2.87-2.32,1.8-4.57,2.77-6.74,15.39-34.37,30.88-69.72,46.48-106.03,8.03-18.67,16.6-37.5,25.71-56.5,9.11-18.97,21.09-33.6,40.16-42.11,9.41-4.2,17.76-6.95,25.03-8.26.1-.01.2.06.22.16.02.08-.03.16-.11.19h0Z" fill="#d1d3d4"/>
    <path d="M364.037,818.5943c23.64-9.93,44.69-16.05,59.15-22.36,47.37-20.68,90.1-40.78,128.21-60.3,28.21-14.46,55.66-30.42,82.33-47.88,40.71-26.66,77.11-56.94,107.68-95.01,13.75-17.12,26.52-33.34,36.99-51.83,5.37-9.49,10-18.28,13.88-26.35,10.01-20.85,16.8-42.69,20.37-65.52,1.53-9.81,2.23-18.73,2.1-26.78-.37-22.01-9.4-44.59-21.59-63.22-.09-.12-.06-.29.07-.38.11-.08.27-.06.36.04,8.85,8.91,20.22,19.02,25.77,28.39,12.41,20.93,15.6,45.93,13.18,69.89-.83,8.17-2.77,17.45-5.82,27.83-5.42,18.42-12.24,35.49-20.45,51.21-7.57,14.48-17.88,30.91-30.95,49.3-2.07,2.91-5.37,6.87-9.89,11.87-7.71,8.53-17.11,18.45-28.21,29.77-5.57,5.68-11.11,10.9-16.61,15.65-19.47,16.84-39.5,32.15-60.07,45.92-42.41,28.4-90.59,52.99-138.11,74.97-18.9,8.74-40.78,17.94-65.63,27.61-26.53,10.31-55.58,18.49-83.15,28.53-24.98,9.1-49.35,17.51-71.12,29.22-.02.01,45.74-23.95,61.51-30.57h0Z" fill="#d1d3d4"/>
    <path d="M300.947,668.5843c0,.28-.22.51-.5.52-.11,0-.22-.03-.31-.1-13.58-9.45-12.85-27.07-9.25-41.71,3.62-14.72,7.87-28.02,12.76-39.89,13.3-32.32,32.59-76.03,49.38-115.89,8.7-20.66,13.63-32.29,14.78-34.88,3.01-6.8,4.25-11.42,10.28-13.8,1.24-.49,10.46-4.01,27.67-10.56,37.41-14.23,74.93-24.69,112.55-31.37,13.03-2.32,27.17-4.35,38.41-4.08.75.02,15.77,1.59,16.07,2.1l.14.24c.11.19.04.42-.14.53-.05.03-.11.05-.17.05-4.11.25-6.83.48-8.17.69-19.03,2.88-37.28,7.07-54.76,12.58-15.68,4.94-34,11.04-54.97,18.29-4.68,1.62-10.74,4.04-15.07,5.95-16.91,7.45-33.42,14.17-49.54,20.14-1.27.47-2.24,1.5-2.63,2.79-1.61,5.38-3.52,10.67-5.73,15.88-7.96,18.8-15.29,35.45-22,49.95-7.47,16.16-17.15,41.21-24.58,57.55-3.81,8.37-8.87,20.17-15.19,35.38-6.45,15.53-11.61,30.39-15.47,44.58-2.34,8.59-3.53,16.95-3.56,25.06h0Z" fill="#d1d3d4"/>
    <path d="M64.987,762.3443v.04-.08c0,.01-.01.02-.01.04h.01Z" fill="#0d120c"/>
    <path d="M326.327,141.5143c-.02-.06-.04-.11-.07-.16.03.05.05.1.07.16Z" fill="#0d120c"/>
    <path d="M65.027,762.5743s-.02-.06-.03-.09c0,.03.02.06.03.09Z" fill="#0d120c"/>
    <path d="M65.047,762.1543s.02-.04.03-.06c-.01.02-.02.04-.03.06Z" fill="#0d120c"/>
    <path d="M65.437,762.8743c-.08,0-.15-.03-.21-.07.06.04.13.07.21.07Z" fill="#0d120c"/>
    <path d="M65.177,762.7643s-.08-.07-.11-.12c.03.05.06.08.11.12Z" fill="#0d120c"/>
    <path d="M635.027,306.0543c.02-.06.05-.12.1-.15-.04.03-.08.07-.1.12v.03Z" fill="#0d120c"/>
    <path d="M326.317,142.0343c-.02.08-.04.16-.09.23.02-.04.04-.07.06-.11s.02-.08.03-.12Z" fill="#0d120c"/>
    <path d="M326.347,141.6843v.17-.17Z" fill="#0d120c"/>
    <path d="M269.327,214.4943v.05-.05Z" fill="#0d120c"/>
    <path d="M376.157,801.1143c43.31-17.79,87.07-36.79,131.3-57.02,10.42-4.76,19.7-9.41,29.35-14.52,15.45-8.19,28.78-15.44,39.97-21.76,24.19-13.66,48.11-29.07,71.76-46.24,18.21-13.23,34.86-26.82,49.95-40.78,27.04-25.03,49.28-51.77,67.28-83.2,9.07-15.85,14.63-25.78,16.68-29.81,6.07-11.93,11.05-24.96,14.93-39.07,9.6-34.93,5.08-72.31-14.25-103.1-8.03-12.79-17.91-22.99-29.62-30.59-23.56-15.28-51.18-23.63-80.29-27.05-11.98-1.4-20.03-1.04-36.18-.98-.18,0-.8-.2-1.85-.6-.05-.02-.09-.06-.12-.1v-.03c-.02-.03-.02-.06-.02-.1s-.01-.07,0-.1v-.03c.02-.05.06-.09.1-.12.44-.28,1.4-.72,2.87-1.32,11.48-4.68,22.4-9.56,32.76-14.64,12.04-5.9,23.76-13.42,33.41-19.95,13.66-9.24,26.15-19.59,37.48-31.05,26.06-26.37,44.89-60.84,49.96-97.71,3.14-22.83.25-44.47-8.67-64.92-12.95-29.69-43.97-48.76-73.2-58.83-6.49-2.23-15.85-4.68-28.08-7.33-8.79-1.91-18.38-3.26-28.75-4.06-24.79-1.91-48.19-1.4-70.18,1.52-27.22,3.61-53.72,8.68-79.49,15.21-33.56,8.51-68.8,18.85-99.39,27.27-25.16,6.92-46.87,13.39-71.34,20.46-29.6,8.55-58.04,14.84-85.32,18.87-24.5,3.61-50.41,4.76-74.25,2.45-20.71-2.01-40.68-7.24-59.9-15.7-11.57-5.09-22.84-12.81-33.81-23.18-1.5-1.42-2.88-3.46-4.45-5.37-.04-.04-.08-.07-.13-.1-.01,0-.03,0-.04-.01-.04-.01-.07-.02-.11-.02h-.07c-.03,0-.05,0-.08.02-.02,0-.05.02-.07.04-.02.01-.04.02-.05.04-.03.03-.05.06-.07.09,0,.01-.02.02-.02.04-.02.05-.03.1-.03.16,1.22,56.34,43.14,101.84,89.07,129.18,23.58,14.03,48.82,24.28,75.73,30.76,8.35,2.01,18.38,4.34,30.08,7.01.07.01.14,0,.19-.04.02,0,.03-.02.04-.03.03-.03.05-.06.07-.1.02-.04.03-.08.03-.12v-.05c-.01-.06-.06-.11-.09-.17-39.77-64.54,24.65-72.06,56.6-73.4.04,0,.08.04.11.06.04.02.06.06.09.08.05.04.09.08.13.13s.06.1.09.15c.03.05.05.1.07.16.02.06.02.11.03.17v.17c0,.06-.02.12-.04.18-.01.04-.01.08-.03.12s-.04.08-.06.11c-4.32,6.67-7.88,13.44-10.67,20.32-5,12.31-10.93,25.51-15.69,36.67-25.95,60.87-51.29,119.9-76,177.07-3.11,7.2-6.21,14.33-9.29,21.39-9.81,22.49-19.54,45.15-29.17,67.98-4.51,10.68-9.2,20.69-14.01,32.27-13.09,31.53-33.47,77.68-42.35,99.37-8.51,20.79-17.23,43.53-7.35,65.24,8.21,18.05,13.88,21.65,30.86,32.15,25.39,15.69,127.35,22.92,184.47-8.15.11-.04.17-.15.14-.26-.04-.11-.15-.17-.27-.14-11.85,2.6-23.53,2.42-35.04-.53-7.57-1.94-16.1-6.01-20.75-12.02-11.88-15.35-7.22-37.68-1.54-54.49,4.87-14.43,10.25-28.9,16.13-43.39,8.7-21.44,30.4-73.16,65.09-155.16,1.93-4.54,5.02-7.6,9.29-9.19,20.01-7.46,42.14-15.17,66.37-23.13,12.93-4.25,23.98-7.54,33.15-9.87,13.25-3.37,24.45-6.08,33.6-8.15,16.32-3.69,32.16-5.68,47.51-5.97,22.58-.43,50.02,4.29,67.58,19.78,14.28,12.59,22.83,31.12,21.92,50.51-1.6,34.16-17.82,65.03-35.76,93.18-10.37,16.28-21.55,30.62-33.52,43.01-9.11,9.42-19.95,19.16-32.52,29.23-16.69,13.35-33.45,25.16-50.28,35.41-47.11,28.69-97.61,51.96-151.5,69.82-129.41,36.15-100.73,11.08-271.63,57.17,75.74-8.58,170.42,36.83,165.27,129.05,30.57-44.79,112.78-77.14,145.89-90.32l-.01.0003ZM586.597,250.8943c-22.18,17.16-46.12,30-72.33,40.16-27.6,10.7-50.17,18.21-67.71,22.54-25.17,6.21-40.23,9.9-45.18,11.07-.12.03-.25.02-.37-.03-.31-.13-.45-.49-.32-.8,10.52-24.62,19.71-44.89,27.8-64.86,5.29-13.09,11.06-24.86,16.81-38.36,7.39-17.38,17.74-41.14,31.03-71.27,10.24-23.21,23.7-45.15,44.54-60.01,22.89-16.31,53.59-23.56,82.02-21,15.99,1.44,34.93,7.85,44.29,21.92,14.81,22.27,11.73,52.64,3.29,76.52-11.85,33.55-35.99,62.54-63.87,84.12h0Z" fill="#d1d3d4"/>
    <path d="M326.027,141.0743s.09.08.13.13c-.04-.05-.08-.09-.13-.13Z" fill="#0d120c"/>
    <path d="M74.117,47.8843c0-.06,0-.11.03-.16-.02.05-.03.1-.03.16Z" fill="#0d120c"/>
    <path d="M269.187,214.7943c-.06.03-.12.05-.19.04.07.01.13,0,.19-.04Z" fill="#0d120c"/>
    <path d="M269.277,214.7343s0-.04.02-.07c-.02.04-.04.08-.07.1.02-.01.04-.02.05-.03h0Z" fill="#0d120c"/>
    <path d="M635.057,306.2643s-.02-.07-.02-.1c0,.04,0,.07.02.1Z" fill="#0d120c"/>
    <path d="M74.167,47.6843s.04-.06.07-.09c-.03.03-.05.06-.07.09Z" fill="#0d120c"/>
    <path d="M74.287,47.5543s.04-.03.07-.04c-.02,0-.05.02-.07.04Z" fill="#0d120c"/>
    <path d="M74.607,47.5143s.03,0,.04.01c-.01,0-.03,0-.04-.01Z" fill="#0d120c"/>
    <path d="M74.477,47.4843s-.03,0-.05.01h.07-.02v-.01Z" fill="#0d120c"/>
  </g>
  <g id="Layer_2" display="none">
    <path d="M591.607,82.2343c-22.85,0-45.59,6.86-62.39,18.83-15.78,11.25-28.4,28.44-39.72,54.1-13.22,29.96-23.63,53.88-30.95,71.09-2.51,5.91-5.03,11.47-7.46,16.86-3.25,7.21-6.33,14.02-9.25,21.26-5.18,12.8-10.85,25.81-16.85,39.58-.02.05-.04.1-.06.15,5.33-1.31,11.4-2.81,18.19-4.48,2.56-.63,5.26-1.35,8.06-2.13,3.62-8.39,7.06-16.48,10.31-24.51,5.29-13.09,11.06-24.86,16.81-38.36,7.39-17.38,17.74-41.14,31.03-71.27,10.24-23.21,23.7-45.15,44.54-60.01,14.93-10.64,33.18-17.42,51.95-20.14-1.44-.22-2.85-.4-4.22-.52-3.28-.29-6.64-.44-9.99-.44v-.01Z" fill="#00aeef"/>
    <path d="M550.977,378.6743c-14.31.27-29.32,2.16-44.61,5.62-9,2.03-20.17,4.74-33.23,8.06-8.8,2.24-19.64,5.47-32.2,9.59-23.94,7.86-46.09,15.58-65.83,22.94-.33.12-.6.22-1.06,1.32-34.51,81.56-56.38,133.7-65,154.95-5.74,14.16-11.07,28.48-15.83,42.58-6.55,19.4-6.79,33.21-.71,41.07,2.03,2.62,7.35,5.45,12.94,6.88.67.17,1.35.33,2.02.48-2.32-12.87,1.15-27.3,5.11-39.04,4.87-14.43,10.25-28.9,16.13-43.39,8.7-21.44,30.4-73.16,65.09-155.16,1.93-4.54,5.02-7.6,9.29-9.19,20.01-7.46,42.14-15.17,66.37-23.13,12.93-4.25,23.98-7.54,33.15-9.87,13.25-3.37,24.45-6.08,33.6-8.15,10.32-2.33,20.44-3.98,30.37-4.95-4.21-.42-8.58-.64-13.07-.64-.84,0-1.68,0-2.52.02l-.0099.01Z" fill="#00aeef"/>
    <path d="M816.127,379.6143c-6.76-10.77-14.83-19.69-24.2-26.77,1.16,1.67,2.29,3.37,3.39,5.12,20.96,33.39,26.77,75.15,15.94,114.57-4.12,14.98-9.5,29.04-15.98,41.79-2.18,4.27-7.74,14.22-17.01,30.43-17.9,31.25-40.79,59.58-70,86.62-15.43,14.28-32.68,28.36-51.27,41.86-23.98,17.41-48.58,33.26-73.14,47.13-11.24,6.35-24.8,13.73-40.31,21.95-10.85,5.75-20.13,10.34-30.11,14.89-44.2,20.21-88.55,39.47-131.81,57.24-.05.02-47.41,19.99-105.49,68.43,77.14-47.75,99.91-54.57,133.02-67.75,43.31-17.79,87.07-36.79,131.3-57.02,10.42-4.76,19.7-9.41,29.35-14.52,15.45-8.19,28.78-15.44,39.97-21.76,24.19-13.66,48.11-29.07,71.76-46.24,18.21-13.23,34.86-26.82,49.95-40.78,27.04-25.03,49.28-51.77,67.28-83.2,9.07-15.85,14.63-25.78,16.68-29.81,6.07-11.93,11.05-24.96,14.93-39.07,9.6-34.93,5.08-72.31-14.25-103.1v-.0099Z" fill="#00aeef"/>
    <path d="M805.877,143.1943c-5.28,38.39-24.45,75.98-53.98,105.87-11.94,12.08-25.28,23.13-39.65,32.86-5.78,3.91-13.55,9.03-22.15,14,6.98,1.25,13.75,2.79,20.3,4.59,9.67-5.22,18.92-11.19,26.78-16.52,13.66-9.24,26.15-19.59,37.48-31.05,26.06-26.37,44.89-60.84,49.96-97.71,3.14-22.83.25-44.47-8.67-64.92-6.13-14.06-16.32-25.74-28.45-35.2,3.98,5.79,6.75,11.09,8.65,15.45,9.95,22.81,13.23,47.25,9.74,72.64l-.01-.01Z" fill="#00aeef"/>
    <path d="M376.157,801.1143c112.44-46.54,231.67-96.75,322.33-180.32,44.7-41.43,82.02-96.09,98.89-152.08,26.77-107.92-59.77-167.67-160.34-161.72-.08,0-1.13-.24-1.97-.7-.04-.13-.06-.31.07-.39,11.89-5.21,24.67-10.42,35.63-15.96,77.33-36.76,148.96-125.98,112.18-213.63-19.29-39.84-58.89-57.24-101.28-66.16-119.88-20.78-236.33,32.08-349.15,60.4-79.63,26.22-205.91,38.92-257.73-22.93,15.21,97.69,89.39,151.21,194.21,167.21-39.23-63.44,25.96-75.47,57.32-72.8-11.17,17.65-17.98,39.17-26.45,57.22-43.91,103.16-85.03,197.7-128.47,298.71-16.62,51.39-67.18,121.47-49.7,164.61,25.52,58.21,141.96,57.53,215.2,23.61-18.86,3.9-42.36,2.29-55.79-12.56-29.2-32.45,45.69-161.21,79.68-253.04,4.38-13.43,56.83-24.17,75.66-32.32,66.47-21.8,197.22-56.62,203.76,46.3-6.88,67.1-50.9,123.89-101.8,165.42-165.11,125.65-256.76,108.26-473.41,162.4,75.74-8.58,170.42,36.83,165.27,129.05,30.57-44.79,112.78-77.14,145.89-90.32h0ZM586.597,250.8943c-47.18,39.05-135.28,62.79-185.22,73.77,13.69-38.23,28.85-67.97,43.92-104.05,30.49-70.74,55.26-161.43,157.59-152.28,103.03,13.9,40.08,146.82-16.29,182.56Z" fill="#00aeef"/>
  </g>
  <g id="Layer_3" display="none">
    <path d="M376.157,801.1143c248.05-93.36,369.21-184.29,421.22-332.4,26.77-107.92-59.77-167.67-160.34-161.72-.08,0-1.13-.24-1.97-.7-.04-.13-.06-.31.07-.39,11.89-5.21,24.67-10.42,35.63-15.96,77.33-36.76,148.96-125.98,112.18-213.63-19.29-39.84-67.7-60.14-101.28-66.16-119.76-21.48-236.33,32.08-349.15,60.4-79.63,26.22-218.52,25.55-257.73-22.93,15.21,97.69,89.39,151.21,194.21,167.21-39.23-63.44,25.96-75.47,57.32-72.8-11.17,17.65-17.98,39.17-26.45,57.22-43.91,103.16-85.03,197.7-128.47,298.71-16.62,51.39-67.18,121.47-49.7,164.61,25.52,58.21,141.96,57.53,215.2,23.61-18.86,3.9-42.36,2.29-55.79-12.56-29.2-32.45,45.69-161.21,79.68-253.04,4.38-13.43,56.83-24.17,75.66-32.32,66.47-21.8,205.76-56.8,203.76,46.3-1.3,67.44-50.9,123.89-101.8,165.42-165.11,125.65-323.56,124.71-473.41,160.4,68.5-10.36,176.21,73.22,165.27,128.05,13.6-41.18,121.25-77.88,145.89-87.32h0ZM587.597,251.8943c-39.1,32.38-136.28,61.79-186.22,72.77,13.69-38.23,28.85-67.97,43.92-104.05,30.49-70.74,55.26-161.43,157.59-152.28,103.03,13.9,37.55,139.8-15.29,183.56Z" fill="#0d120c"/>
  </g>
  <g id="Layer_4">
    <path d="M512.337,118.4643c-18.88,23.06-31.76,54.45-44.21,84.81-3.12,7.59-6.34,15.44-9.58,22.96-5.44,13.03-10.93,25.31-16.23,37.19-6.1,13.66-11.98,26.84-17.66,40.75,7.22-1.9,14.82-4.02,22.63-6.31,9.42-22.11,19.23-42.86,29-66.25,25.62-59.44,47.21-132.96,114.17-149.5-.52,0-1.04-.02-1.55-.02-31.93,0-56.27,11.56-76.58,36.37h.01Z" fill="#fff"/>
    <path d="M796.217,70.7443c9.77,23.28,13.09,47.71,9.86,72.61-2.9,22.41-11.02,44.73-24.13,66.33-20.93,34.49-53.58,65.23-91.02,86.06,5.05.91,10,1.99,14.86,3.23,75.76-37.9,144.29-125.54,108.15-211.66-6.67-13.78-16.83-25.22-28.65-34.54,4.04,5.36,7.63,11.1,10.61,17.26.11.23.22.47.32.71h0Z" fill="#fff"/>
    <path d="M416.187,410.2643c-12.01,3.69-36.63,11.24-42.26,16.26-9.83,26.42-23,55.96-35.75,84.53-15.79,35.41-32.13,72.02-41.41,101.34-12.41,39.21-6.94,49.4-4.97,51.59,3.91,4.32,9.27,6.73,14.52,8.06-8.77-45.39,54.89-157.86,85.46-240.47,4.38-13.43,56.83-24.17,75.66-32.32,21.33-6.99,50.15-15.34,79.39-20.06-28.83,1.63-64.92,9.34-105.32,22.55-6.46,2.72-15.23,5.41-25.33,8.51l.01.01Z" fill="#fff"/>
    <path d="M376.157,801.1143c248.05-93.36,376.27-182,421.22-332.4,31.84-106.54-59.77-167.67-160.34-161.72-.08,0-1.13-.24-1.97-.7-.04-.13-.06-.31.07-.39,11.89-5.21,24.67-10.42,35.63-15.96,77.33-36.76,148.96-125.98,112.18-213.63-19.29-39.84-67.7-60.14-101.28-66.16-119.76-21.48-236.33,32.08-349.15,60.4-79.63,26.22-218.52,25.55-257.73-22.93,15.21,97.69,89.39,151.21,194.21,167.21-39.23-63.44,25.96-75.47,57.32-72.8-11.17,17.65-17.98,39.17-26.45,57.22-43.91,103.16-85.03,197.7-128.47,298.71-16.62,51.39-67.18,121.47-49.7,164.61,25.52,58.21,141.96,57.53,215.2,23.61-18.86,3.9-42.36,2.29-55.79-12.56-29.2-32.45,45.69-161.21,79.68-253.04,4.38-13.43,56.83-24.17,75.66-32.32,66.47-21.8,205.76-56.8,203.76,46.3-1.3,67.44-50.9,123.89-101.8,165.42-165.11,125.65-323.56,124.71-473.41,160.4,68.5-10.36,176.21,73.22,165.27,128.05,13.6-41.18,121.25-77.88,145.89-87.32h0ZM587.597,251.8943c-39.1,32.38-136.28,61.79-186.22,72.77,13.69-38.23,28.85-67.97,43.92-104.05,30.49-70.74,55.26-161.43,157.59-152.28,103.03,13.9,37.55,139.8-15.29,183.56Z" fill="#fff"/>
    <path d="M793.117,352.7043c.46.6.93,1.2,1.38,1.8,24.29,32.61,30.05,73.53,16.67,118.33-23.27,77.88-67.6,139.81-139.49,194.9-65.67,50.33-157.97,96.99-290.46,146.86-2,.77-4.65,1.75-7.79,2.92-16.65,6.18-47.65,17.69-75.6,32.1-18.47,9.52-30.7,17.76-38.81,24.6,23.02-16.84,148.13-62.08,148.13-62.08,248.05-93.36,376.27-182,421.22-332.4,16.7-55.87-.57-99.24-35.25-127.01v-.0199Z" fill="#fff"/>
  </g>
</svg>