<?xml version="1.0" encoding="UTF-8"?>
<svg id="Layer_1" xmlns="http://www.w3.org/2000/svg" width="10.9972in" height="5.3708in" version="1.1" viewBox="0 0 791.7949 386.6976">
  <!-- Generator: Adobe Illustrator 30.0.0, SVG Export Plug-In . SVG Version: 2.1.1 Build 123)  -->
  <path d="M782.0951,62.4996c-63.7996-18.7999-128.5992-32.9998-192.5988-42.3997-7.7999-1.1-15.5999-2.2-23.4999-3.2.6-.5,1.3-1,1.9-1.4,3.2-2,4.5999-5.8,3.6-9.3999-1-3.6-4.3-6.1-8.0999-6.1h-12.4999c-3.9,0-7.2999,2.7-8.2,6.5-.9-3.7-4.2-6.5-8.2-6.5h-45.1997c-3.6,0-6.7999,2.3-7.9,5.7v.2l-.1-.2c-1.1-3.4-4.3-5.7-7.8999-5.7h-21.1999c-.6,0-1.3,0-1.9.2-.6-.1-1.2-.2-1.9-.2h-21.1999c-3.6,0-6.7999,2.3-7.8999,5.7v.2l-.1-.2c-1.1-3.4-4.3-5.7-7.8999-5.7h-21.1999c-3.2,0-6.1,1.8-7.5,4.6-.2.5-.4.9-.5,1.4-7,0-13.9999.2-20.9999.4-.9-3.7-4.2-6.4-8.1-6.4h-38.8997c-1.1,0-2.2.2-3.2.7-1-.4-2.1-.7-3.2-.7h-26.8998c-3.1,0-5.4.2-7.2.6-1.1.3-2.2.7-3.2,1.2-1.4-1.1-3.3-1.8-5.2-1.8h-36.4998c-3.2,0-6.1,1.8-7.5,4.6s-1.1,6.1.6,8.6c0,.2.2.6.2,1.4v2.9c-6.2.8-12.3999,1.7-18.5999,2.6C139.2991,29.4998,74.2995,43.7997,10.0999,62.4996l-4.2,1.2-5.9,1.7v251.9984l5.9,1.7,4.2,1.2c28.7998,8.4,57.6996,15.8999,86.5994,22.4999v27.6998c0,1.9-.4,2.6-.4,2.6-1.9,2.5-2.2,5.9-.8,8.7999,1.4,2.8,4.3,4.5999,7.5,4.5999h40.8998c3.6,0,6.3-.2,8.4999-.8,1.7-.4,3.2-1.1,4.6-1.9,1.6,1.7,3.8,2.7,6.1,2.7h45.4997c4.1,0,7.6-3,8.3-7l1.7-10.0999c.3-1.6,0-3.2-.5-4.5999,2.3.3,4.6.6,6.9.9.3,6.0999,1.9,10.5999,5,13.8999,2,2.2,4.5,3.9,7.3999,5.0999,2.8,1.1,5.8,1.7,8.7999,1.7h29.2998c3,0,6-.6,8.7999-1.7,1.1-.5,2.2-1,3.2-1.6,1.6,2.1,4,3.4,6.7,3.4h23.3998c3.2,0,6.1-1.8,7.5-4.7,1.1-2.2,1.1-4.5999.2-6.7999,3.1.2,6.2999.3,9.3999.5-.7,2.1-.6,4.4.4,6.4,1.4,2.8,4.3,4.5999,7.5,4.5999h23.3998c3.2,0,6.1-1.8,7.5-4.7.8-1.6,1-3.4.7-5,2.9,0,5.7,0,8.6.1-.3,1.7,0,3.4.8,5,1.4,2.8,4.3,4.5999,7.5,4.5999h45.4997c.7,0,1.4,0,2.1-.3.7.2,1.4.3,2.1.3h12.4999c3.2,0,6.1-1.8,7.5-4.5999.8-1.5,1-3.2.8-4.9l2.4,4.8c1.4,2.9,4.3,4.7,7.5,4.7h24.3998c1.4,0,2.7-.3,3.8-.9,1.2.6,2.5.9,3.8.9h33.4998c3.7,0,6.4-.2,8.4-.8,1.4-.3,2.7-.9,3.9-1.5,1.5,1.4,3.6,2.3,5.7,2.3h23.3999c3.2,0,6.0999-1.8,7.5-4.7,1.4-2.8,1.1-6.2-.9-8.7,0-.1-.3-.9-.4-2.5v-7h.5l6.2,17.4999c1.2,3.3,4.3,5.5999,7.9,5.5999h21.0998c3.5,0,6.5999-2.1,7.7999-5.4l7.2999-18.9999v8.4c0,1.9-.4,2.6-.4,2.6-1.9,2.5-2.2,5.9-.8,8.7999,1.4,2.8,4.3,4.5999,7.5,4.5999h45.4997c4.0999,0,7.5999-3,8.2999-7l1.7-10.0999c.5-3-.6-5.9-2.9-7.7999-.3-.2-.5-.4-.8-.6.4-1,.6-2,.6-3.1v-10.7999c0-1.3-.3-2.5-.9-3.7h0c29.5998-6.7,59.1996-14.3999,88.5994-22.9999l4.2-1.2,5.8-1.7V65.7996l-5.8-1.7-4.2-1.2.3002-.4ZM516.4968,44.9997l13.4999-14.2999-3.3-4.3-4.7-6.2999-4.3-5.7c-.8-1.2-1.6-2.2-2.5-3.1-1-1.1-2.1-2.1-3.2-2.9h22.6999c0,1.3.2,2.3.5,3.1.2.5.6,1.1,1,1.9.3.5.7,1,1.1,1.5l4,5.3,5.5999-5.7,1.2-1.2c1.7-1.9,2.6-3.5,2.9-5h12.4999c-2,1.3-3.9,2.8-5.5,4.5l-2.6,2.7-7.0999,7.4-3,3.1,1.9,2.6,10.7999,14.9999c1.3,1.8,2.2,3,2.8,3.7s1.5,1.5,2.6,2.4h-22.1999c.1-.6.2-1,.2-1.3,0-1.2-.8-2.9-2.4-5.1l-5.0999-6.9-8.4999,8.9999c-.9,1-1.6,1.7-1.9,2.2-.3.5-.5,1.2-.7,2h-11.6999c1.8-1.4,3.6-3,5.2-4.8l.2.1999ZM452.2972,8.2999h21.1999l2.7,8.1999,2,5.9,3.2,9.4999,3.1-9.0999,1.9-5.7,2.7-7.9999.3-.9h21.1999c-.5.7-.9,1.5-1.2,2.5s-.5,2.3-.5,3.7v29.0998c0,2.7.7,4.8,1.7,6.1h-19.1999c1.1-1.4,1.6-3.4,1.7-6.1v-25.3998l-1.7,5.1-8.9999,26.3998h-11.1999l-9.3999-28.1998-1.1-3.3v25.3998c0,2.7.7,4.8,1.7,6.1h-10.2999c1.1-1.4,1.6-3.5,1.7-6.1V14.3999c0-2.6-.7-4.7-1.7-6.1h.2ZM391.7976,14.0999c-.1-2.5-.7-4.4-1.7-5.7h21.1999l2,5.8,2,5.8,4,11.8999,4-11.7999,2-5.8,2.1-6.1h21.1999c-1.1,1.4-1.6,3.4-1.7,6.1v29.0998c0,2.7.7,4.8,1.7,6.1h-19.1999c1.1-1.4,1.6-3.4,1.7-6.1v-25.3998l-.7,2.1-9.9999,29.3998h-11.1999l-9.9999-29.7998-.6-1.7v25.3998c0,2.7.7,4.8,1.7,6.1h-10.2999c1.1-1.4,1.6-3.5,1.7-6.1V13.8999l.1.2ZM362.4977,15.0999v-.6c6.9-.2,13.9999-.3,20.9999-.4v5.8c-7.2999,0-14.5999.2-21.8999.4.8-1.6,1.2-3.4.9-5.2h0ZM368.7977,38.6998v11.0999h-15.5999v-11.0999h15.5999ZM313.998,8.4999v-.2h38.8997l1,6.4.2,1.6c-.8-.5-1.5-.8-2.2-1s-1.8-.2-3.3-.2h-7.2999v28.3998c0,2.7.7,4.8,1.7,6.1h-19.1999c1.1-1.4,1.6-3.4,1.7-6.1V15.0999h-7.2999c-1.5,0-2.6,0-3.3.2-.7.2-1.5.5-2.2,1l1.2-7.8999.0999.1ZM375.2977,101.4993l3.2,20.7999c-3.4-1.1-6-1.8-7.7999-2.1-1.9-.2-5.8-.4-11.6999-.4h-34.4998v26.8998h33.8998c5.5,0,9.9999-.6,13.5999-1.7.8-.2,1.5-.5,2.2-.8v23.6999c-2.2-1.8-6.4-2.8-12.5999-2.9h-37.0998v29.0998h41.0997c3.7,0,8.9999-1.3,15.6999-3.8l-3.7,22.0999h-99.8994c2.9-3.8,4.4-9.2999,4.6-16.2999h0v-77.9995c-.2-7.1-1.8-12.5999-4.6-16.3999h97.5994v-.2ZM269.6983,26.0998v-9.1999c0-2,.5-3.6,1.4-5,.4-.6.8-1.1,1.3-1.6,1-.8,2-1.4,3-1.6,1.1-.3,2.8-.4,5.2-.4h26.8998v.6c.1,0,1.5,7.8,1.5,7.8-1.6-1.1-3.2-1.6-4.8-1.6h-16.0999c-1.1,0-1.8.2-2.2.5-.4.3-.6.9-.6,1.7v1.4h0c0,1,.2,1.7.6,2s1.3.5,2.7.5h10.1999c2.6,0,4.5.1,5.7.4,1.1.2,2,.7,2.7,1.3l.2.2c1.6,1.4,2.4,3.6,2.4,6.7v11.2999c0,2.9-1,5-2.7,6.6-1,.8-2,1.3-3,1.6-1.1.3-2.8.4-5.2.4h-27.3998l-1.5-8.2999c1.2.6,2.3,1,3.3,1.2,1.1.2,2.9.3,5.7.3h11.9999c1.4,0,2.3,0,2.6-.2.3-.2.6-.4.7-.6.1-.3.2-.7.2-1.4v-1.3c0-1-.1-1.7-.4-2s-.8-.5-1.5-.5h-11.6999c-2.5,0-4.3-.1-5.6-.4-1.2-.2-2.2-.7-3-1.3-1.6-1.3-2.4-3.6-2.4-6.9v-2.2h-.2001ZM228.6986,8.2999h36.4998l.6,4.1.6,3.7c-1.3-.4-2.2-.7-2.9-.8-.7,0-2.2-.1-4.4-.2h-12.8999v9.9999h12.6999c2.5,0,4.5-.3,5.9-.9v8.8999c-.8-.7-2.4-1.1-4.7-1.1h-13.8999v10.8999h15.2999c1.4,0,3.4-.5,5.9-1.4l-1.4,8.2h-37.2998c1.1-1.4,1.6-3.5,1.7-6.1V14.4999c0-2.6-.7-4.7-1.7-6.1v-.1ZM14.0999,75.8995v231.0986c26.8998,7.9,53.6997,14.8999,80.5995,21.0998,0,1.6.6,3.2,1.6,4.5999,0,0,.3.5.4,1.9-28.1998-6.4-56.2996-13.6999-84.2995-21.8999l-4.2-1.2V71.6995l4.2-1.2c63.7996-18.5999,128.3992-32.7998,192.1988-42.1997,5.8-.8,11.5999-1.6,17.3999-2.4v5.9c-69.2996,9.2999-138.5991,23.9998-207.8987,44.2997v-.1999ZM157.399,340.9979v2.1c0,1.6-.1,2.8-.4,3.7,0,.3-.2.5-.3.8-.4,1-1.2,1.8-2.4,2.5-1.7.9-4.7,1.5-8.9999,1.9,2.6,0,4.6.1,6,.4,1.4.3,2.5.8,3.4,1.5.4.3.7.6,1,1,1.1,1.4,1.6,3.3,1.7,5.8v7c0,3.6-1.1,6.2-3.2,7.9999-1.1.9-2.3,1.6-3.8,1.9-1.5.4-3.6.5-6.5.5h-40.8998c1.3-1.8,2-4.2,2.1-7.5v-35.4998c0-1.9-.3-3.5-.8-4.9-.3-1-.8-1.9-1.3-2.6h40.8997c2.9,0,5,.2,6.5.5,1.4.3,2.7,1,3.8,2,2,1.8,3.1,4.4,3.2,7.9999v2.9h0ZM208.6987,378.0976h-45.4997c1.3-1.8,2-4.2,2.1-7.5v-35.4998c0-3.2-.8-5.7-2.1-7.5h44.3997l1.5,9.4999c-1.5-.5-2.7-.8-3.6-.9-.9-.1-2.6-.2-5.3-.2h-15.6999v12.1999h15.7999c2.9,0,5.2-.4,6.8-1.1v10.7999c-1-.8-2.9-1.3-5.7-1.3h-16.8999v13.2999h18.6999c1.7,0,4.1-.6,7.2-1.7l-1.7,10.0999v-.1999ZM215.4987,356.1977v-5.9c3.2.4,6.3.9,9.4999,1.3v5.9c-3.2-.4-6.3-.8-9.4999-1.3h0ZM179.6989,259.7984h-76.5995c4.1-5.5,6.3-13.2999,6.6-23.3998v-111.3993c-.3-10.0999-2.5-17.8999-6.6-23.3998h128.2992c8.9999,0,15.6999.5,20.1999,1.6s8.4999,3.1,11.8999,6.1c6.4,5.6,9.7,13.8999,9.9999,24.9998v15.7999c0,6.2999-.7,10.9999-2,14.0999-1.4,3.1-3.8,5.7-7.5,7.7-5.4,2.9-14.7999,4.8-28.2998,5.9,5.7,0,10.4999.2,14.2999.6,1.7.2,3.2.4,4.5.7,4.3.9,7.7999,2.5,10.7999,4.8,2.4,1.9,4.3,4.3,5.6,7.3999,1.7,3.8,2.6,8.3999,2.6,13.8999v21.7999c-.2,11.0999-3.6,19.4999-9.9999,24.9998-3.3,2.9-7.2999,5-11.7999,6.1-4.6,1.1-11.2999,1.7-20.2999,1.7h-51.6997ZM288.4982,358.4978v5.9c0,3.4-.6,6.0999-1.7,7.9999-.3.6-.7,1.2-1.2,1.7-1.1,1.3-2.6,2.3-4.4,3s-3.7,1.1-5.7,1.1h-29.2998c-1.9,0-3.8-.4-5.7-1.1-1.8-.7-3.3-1.7-4.4-3-1.4-1.5-2.3-3.9-2.7-7.2-.1-1-.2-2-.2-3.2v-21.5998c0-4.9,1-8.4,2.8-10.4,1.1-1.3,2.6-2.3,4.4-3s3.7-1.1,5.7-1.1h29.2998c1.9,0,3.8.4,5.7,1.1,1.8.7,3.3,1.7,4.4,3,1.9,2,2.8,5.4,2.8,10.4v16.3999h.2001ZM291.2982,281.2982c.7-.8,1.3-1.6,1.6-2.2,1.2-1.9,2-4,2.4-6.1l7.6-39.3997c.2-1,.3-2,.3-3.3,0-1.9-.4-3.6-1.1-5h45.4997c4,0,7.1.5,9.0999,1.6,2.6,1.3,3.9,3.6,3.9,6.9s-.1,2.1-.3,3.2l-1,5.5c-.8,4.1-2.6,6.7999-5.3,8.2-2.1,1.1-5.4,1.6-9.9999,1.6,3.9,0,6.7.4,8.2999,1.1,2.3,1,3.5,2.9,3.5,5.8s0,1.8-.3,2.8l-1.5,7.7c-.8,4.4-2.9,7.5999-6.1,9.4-2.6,1.5-6.2999,2.2-10.9999,2.2h-45.5997ZM336.3979,367.3977c-4.2-.2-8.3999-.4-12.4999-.6v-1.9h6.7c2.1,0,2.9.1,3.1.2.1,0,.6.1,1.5.6.4.2.8.3,1.2.4v1.4-.1ZM332.2979,348.0978c2.3,0,4.4-.4,6.5-1.3v11.0999c-1.3-.6-2.5-1-3.6-1.2s-2.6-.3-4.6-.3h-15.0999v14.1999c0,1.4.2,2.7.5,3.8.4,1.5.9,2.7,1.6,3.7h-23.3998c1-1.3,1.6-3,1.9-5,.1-.8.2-1.6.2-2.5v-35.4998c0-3.2-.8-5.7-2.1-7.5h44.1997l1.6,9.4999c-1.5-.6-2.6-.9-3.5-1-.9,0-3.2-.2-7-.2h-13.8999v12.1999h16.7999-.1ZM384.8976,368.6977c-4.2,0-8.3999,0-12.4999-.2v-3.7h6.7c2.1,0,2.9.1,3,.2.1,0,.6.1,1.5.6.4.2.8.3,1.2.4v2.8l.1-.1ZM380.7976,348.0978c2.3,0,4.4-.4,6.5-1.3v11.0999c-1.3-.6-2.5-1-3.5-1.2-1.1-.2-2.6-.3-4.6-.3h-15.0999v14.1999c0,2.4.5,4.4,1.2,5.9.3.6.6,1.1.9,1.6h-23.3998c.5-.6.9-1.4,1.2-2.3.5-1.5.8-3.2.9-5.3v-35.4998c0-3.2-.8-5.7-2.1-7.5h44.1997l1.6,9.4999c-1.5-.6-2.6-.9-3.5-1-.9,0-3.2-.2-7-.2h-13.8999v12.1999h16.7999l-.2.1ZM375.9977,266.0983l-5,7.5999c-.6,1-.9,1.5-1,1.7-.3.6-.5,1.2-.6,1.6,0,.5-.1,1-.1,1.5,0,.8.1,1.7.4,2.7h-15.6999c1.5-1.3,3-3,4.6-5.0999,1.5-1.7,2.8-3.6,4.1-5.5l27.8998-42.2997c-.4-1.4-.9-2.5-1.6-3.3h24.7998l10.1999,49.4997c.6,2.4,1.7,4.5,3.1,6.5999h-28.2998c1.1-1.1,1.9-2.4,2.2-3.8.1-.9.2-1.5.2-1.9,0-1.3-.2-2.9-.7-4.6s-.9-3.3-1.3-4.8h-22.9999l-.2.1ZM438.3973,368.0977l-1.4,8.2-.3,1.8h-45.4997c.3-.4.5-.8.7-1.2.8-1.6,1.3-3.7,1.4-6.2999v-35.4998c0-3.2-.8-5.7-2.1-7.5h44.3997l1.5,9.4999c-1.5-.5-2.7-.8-3.6-.9-.9-.1-2.6-.2-5.3-.2h-15.6999v12.1999h15.4999c3.1,0,5.5-.4,7.2-1.1v10.7999c-1-.8-2.9-1.3-5.7-1.3h-16.8999v13.2999h18.6999c1.7,0,4-.6,7-1.7h.2l-.1-.1ZM442.3973,234.4985c-1.7,0-3.1,0-4.2.3-1.1.2-2.3.7-3.6,1.4l3.8-10.8999h52.5997l-.4,10.8999c-1-.7-2-1.1-3-1.3-1-.2-2.4-.3-4.2-.3h-9.8999l-7.3999,38.4998c-.2,1-.3,2-.3,3.3,0,1.9.4,3.6,1.1,5h-25.8998c.7-.7,1.2-1.4,1.5-2,1.2-1.9,2-4,2.4-6.2999l7.3999-38.4998h-9.8999v-.1ZM495.9969,335.0979v42.9997h-24.3998l-1.6-3.2-3.9-7.9-2.8-5.7-11.9999-24.1999v33.5998c0,2,.3,3.7.9,5.0999.3.9.7,1.7,1.3,2.4h-12.4999c.4-.6.8-1.2,1.1-2,.6-1.5,1-3.3,1-5.5v-35.4998c0-3.2-.8-5.7-2.1-7.5h27.3998l15.5999,32.3998,2.7,5.5999,1.1,2.2v-32.7998c0-3.3-.8-5.8-2.1-7.5h12.4999c-1.3,1.7-2,4.2-2.1,7.5h-.1ZM466.7971,212.2987l-19.5999-47.1997h-12.9999v30.7998c.2,7.2,1.8,12.6999,4.6,16.3999h-51.3997c2.9-3.8,4.4-9.2999,4.6-16.3999v-77.9995c-.2-7.1-1.8-12.5999-4.6-16.3999h91.1994c6.2999,0,10.9999.4,14.1999,1.1,3.2.8,6,2.2,8.2999,4.3,4.5,3.9,6.7999,9.7,7,17.4999v23.8998c0,5-.6,8.7-1.9,10.9999-2.3,4-6.0999,5.9-11.4,5.9s-1.7,0-2.9-.2l15.1999,32.0998c2.7,5.8,5.5,10.7999,8.4999,15.0999h-48.6997l-.0999.1ZM550.5966,353.7978v14.0999c-.1,3.3-1.2,5.9-3.3,7.7-1.2,1-2.4,1.6-3.7,2-1.3.3-3.4.5-6.2999.5h-33.4998l-1-5.5-.8-4.5999c1.4.8,2.7,1.3,4,1.5s3.6.3,6.9.3h14.6999c1.8,0,2.8,0,3.1-.2.4-.2.7-.5.8-.8s.2-.9.2-1.7v-1.6c0-1.2-.2-2-.5-2.4s-.9-.6-1.8-.6h-14.2999c-3,0-5.3-.1-6.7999-.4-1.5-.3-2.7-.8-3.7-1.6-.6-.5-1-1.1-1.4-1.7-1-1.6-1.5-3.8-1.5-6.5999v-13.8999c0-3.5,1.2-6.0999,3.3-7.9999,1.2-1,2.4-1.7,3.7-2s3.4-.5,6.2999-.5h32.7998l1.8,10.2999c-1.9-1.3-3.9-2-5.9-2h-19.7999c-1.3,0-2.2.2-2.7.6s-.8,1.1-.8,2.1v1.7c0,1.3.2,2.1.7,2.5s1.6.6,3.3.6h12.4999c3.2,0,5.5.2,6.9.5s2.6.9,3.6,1.8c1.9,1.7,2.9,4.4,2.9,8.2h0l.3-.2999ZM578.6964,378.0976h-23.3999c1.3-1.8,2-4.2,2.1-7.5v-35.4998c0-3.2-.8-5.7-2.1-7.5h23.3999c-1.3,1.7-2,4.2-2.1,7.5v35.4998c0,3.3.8,5.8,2.1,7.5ZM639.096,330.5979c-.6,1-1.4,3-2.5,5.8l-1.8,4.7-2.4,6.2999-3.4,8.9-8.2999,21.6999h-21.0998l-5.7-15.9999-2.8-7.7999-2-5.5999-4.8-13.4999c-1.1-3-2.3-5.5-3.7-7.5999h23.5998c-.3,1.1-.5,1.9-.5,2.7,0,1.5.4,3.3,1.1,5.4l3.6,10.0999,2,5.5999,2.8,7.7999,3.1,8.5999,3.7-9.7999,3.3-8.7999,2.4-6.2999,2.7-7.2999c.7-1.9,1.1-3.7,1.1-5.2s-.1-1.7-.4-2.7h12.7999c-1.1,1-2,2-2.6,3h-.1999ZM687.4957,378.0976h-45.4997c1.3-1.8,2-4.2,2.1-7.5v-35.4998c0-3.2-.8-5.7-2.1-7.5h44.3997l.5,2.9.9,5.7v.8c-.4-.2-.9-.3-1.4-.5-.8-.2-1.5-.4-2.1-.5-.9-.1-2.6-.2-5.3-.2h-15.6999v12.1999h15.4999c3.1,0,5.5-.4,7.2-1.1v10.7999c-1-.8-2.9-1.3-5.7-1.3h-16.8999v13.2999h18.6999c1.7,0,4.0999-.6,7.2-1.7l-1.7,10.0999h-.1ZM689.1957,259.7984h-52.2997c-1.2-4.4-2.1-10.0999-2.9-17.1999-.5,6.7999-2.6,11.3999-6.4,13.6999-3.8,2.3-11.0999,3.5-21.7999,3.5h-45.8997c-8.9999,0-15.6999-.6-20.2999-1.7s-8.4999-3.1-11.7999-6.1c-6.4-5.6-9.7-13.8999-9.9999-24.9998v-92.6994c.2-11.0999,3.6-19.4999,9.9999-24.9998,3.4-3,7.4-5.1,11.8999-6.1,4.5-1.1,11.2999-1.6,20.1999-1.6h114.1993l5.3,30.7998c-3.9-2.2-7.2-3.5-9.9999-4s-7.9999-.8-15.7999-.8h-60.1996c-6.4,0-10.5999,1.2-12.5999,3.5-1.9,2.2-2.8,6.7999-2.9,13.8999v71.3996c0,6.2.7,10.3999,2,12.5999,2.4,3.2,6.9,4.8,13.5999,4.8h16.9999c5,0,8.2999-1,9.9999-3.1,1.6-2,2.4-6.2999,2.4-12.6999v-27.3998h-14.9999c-4.4,0-7.7999.2-10.2999.7s-5.3,1.4-8.5999,2.9v-28.7998h100.0993c-4.0999,5.3-6.2999,13.0999-6.5999,23.3998v47.4997c.3,10.3999,2.5,18.1999,6.5999,23.3998l.1.1ZM783.9951,75.8995v235.3985l-4.2,1.2c-27.7998,8.2-55.7996,15.4999-83.7995,21.8999l-.9-5.7c27.6998-6.4,55.3997-13.5999,83.0995-21.7999V75.7995c-73.0995-21.4999-146.2991-36.7998-219.4986-45.8997l-2.3-3.2s1.1-1.2,2.5-2.6c9.7999,1.2,19.6999,2.5,29.4998,4,63.5996,9.2999,127.9992,23.4999,191.4988,42.1997l4.2,1.2v4.4h-.1Z" fill="#fff"/>
  <polygon points="381.9976 257.0984 396.9975 257.0984 393.1976 239.6985 381.9976 257.0984" fill="#fff"/>
  <path d="M336.8979,246.6984c.6-.7,1.1-2.1,1.5-4l.4-2.2c.1-.7.2-1.4.3-1.9,0-.5.1-.9.1-1.2,0-.9-.2-1.7-.7-2.2-.4-.5-1.3-.8-2.4-.8h-12.1999l-2.6,13.5999h11.5999c1.9,0,3.2-.5,4-1.4v.1Z" fill="#fff"/>
  <path d="M212.9987,195.0988c-.9-1.2-2-2-3.4-2.3s-4.3-.5-8.6-.5h-31.1998v41.3997h29.5998c6.7,0,11.2999-1.3,13.6999-3.8.8-1,1.4-2.2,1.6-3.5.1-.8.2-2.1.3-3.9v-11.5999c0-5.5-.1-9.2-.3-10.9999-.2-1.9-.8-3.4-1.7-4.8h0Z" fill="#fff"/>
  <path d="M212.8987,130.9992c-1.5-2.3-4.4-3.4-8.6999-3.4h-34.2998v38.5998h32.7998c4.9,0,8.3-1,9.8999-3.1,1.7-2,2.5-6.1,2.5-12.1999v-6.4c0-2.1,0-3.9-.2-5.6-.3-3.7-1-6.4-2-7.8999Z" fill="#fff"/>
  <path d="M334.0979,257.8984c-.6-.3-1.8-.5-3.5-.5h-10.9999l-2.9,14.6999h10.4999c1.9,0,3.3-.3,4.2-.8,1.1-.7,1.9-1.9,2.2-3.6l1.1-5.6c.2-.8.3-1.6.3-2.2,0-1-.3-1.7-.9-2h0Z" fill="#fff"/>
  <path d="M456.6972,119.7993h-22.3999v26.9998h23.4999c3.6,0,6-.6,7.1-1.8h0c1-1.2,1.6-3.8,1.6-7.7999v-5.5c0-5.5-.5-8.7999-1.5-9.9999s-3.8-1.8-8.2999-1.8v-.1Z" fill="#fff"/>
  <path d="M138.0992,357.3977c-.3-.4-.6-.6-1.1-.7-.4,0-1.4-.1-2.7-.1h-9.8999v13.1999h9.3999c2.1,0,3.6-.4,4.4-1.2.3-.3.4-.7.5-1.1,0-.4.1-1.3.1-2.6v-2.4c0-1.8,0-2.9-.1-3.5,0-.6-.3-1.1-.6-1.5v-.1Z" fill="#fff"/>
  <path d="M138.0992,336.9979c-.5-.7-1.4-1.1-2.8-1.1h-10.8999v12.2999h10.4999c1.6,0,2.6-.3,3.2-1,.5-.7.8-1.9.8-3.9h0v-2c0-1.9-.2-3.2-.5-4,0-.1-.1-.2-.2-.3h-.1Z" fill="#fff"/>
  <path d="M264.2984,335.8979h-7.5c-1.7,0-2.8.4-3.4,1.2s-.9,2.4-.9,4.7v21.9999c0,2.2.2,3.7.6,4.4.3.4.8.7,1.3,1,.8.4,1.8.6,3.1.6h6.7999c2.1,0,3.4-.4,4-1.1.6-.7.9-2.3.9-4.8v-21.9999c0-2.2-.2-3.7-.6-4.4-.8-1-2.2-1.5-4.4-1.5l.1-.1Z" fill="#fff"/>
</svg>
